<?xml version="1.0" encoding="UTF-8"?>
<svg width="512" height="512" viewBox="0 0 512 512" fill="none" xmlns="http://www.w3.org/2000/svg">
  <circle cx="256" cy="256" r="256" fill="#0052CC"/>
  <path d="M128 192C128 156.654 156.654 128 192 128H320C355.346 128 384 156.654 384 192V320C384 355.346 355.346 384 320 384H192C156.654 384 128 355.346 128 320V192Z" fill="#2684FF"/>
  <path d="M192 256C192 238.327 206.327 224 224 224H288C305.673 224 320 238.327 320 256V288C320 305.673 305.673 320 288 320H224C206.327 320 192 305.673 192 288V256Z" fill="#36B37E"/>
  <circle cx="368" cy="144" r="32" fill="#FFB800"/>
</svg> 